<svg width="301" height="116" viewBox="0 0 301 116" fill="none" xmlns="http://www.w3.org/2000/svg">
<path d="M66.9062 61C67.0104 60.9792 67.1042 60.9688 67.1875 60.9688C67.2917 60.9479 67.3854 60.9375 67.4688 60.9375C67.8438 60.9375 68.1458 61.0625 68.375 61.3125C68.6042 61.5417 68.7604 61.9583 68.8438 62.5625C68.8854 62.9375 68.9479 63.4688 69.0312 64.1562C69.1354 64.8229 69.2396 65.5729 69.3438 66.4062C69.4688 67.2188 69.5938 68.0625 69.7188 68.9375C69.8646 69.8125 69.9896 70.625 70.0938 71.375C70.1979 72.1042 70.2917 72.7396 70.375 73.2812C70.4583 73.8021 70.5104 74.1354 70.5312 74.2812C70.9896 77.9688 71.3958 80.9271 71.75 83.1562C72.1042 85.3854 72.3542 87.0312 72.5 88.0938L74.5938 105L74.2812 105.969C74.2396 106.115 73.9688 106.292 73.4688 106.5C72.9688 106.708 72.3646 106.927 71.6562 107.156C70.9479 107.406 70.1771 107.646 69.3438 107.875C68.5104 108.104 67.7396 108.312 67.0312 108.5C66.3229 108.688 65.7188 108.833 65.2188 108.938C64.7396 109.062 64.4896 109.125 64.4688 109.125C63.9688 109.125 63.5729 108.76 63.2812 108.031C62.9896 107.302 62.75 106.375 62.5625 105.25C62.375 104.125 62.2188 102.896 62.0938 101.562C61.9896 100.229 61.8646 98.9479 61.7188 97.7188C61.5938 96.6979 61.4792 95.6667 61.375 94.625C61.2708 93.5833 61.1562 92.5208 61.0312 91.4375L59.8125 82.3125L48.2188 103.531C47.8646 104.031 47.5104 104.396 47.1562 104.625C46.8021 104.833 46.4688 104.938 46.1562 104.938C45.6979 104.938 45.3333 104.802 45.0625 104.531C44.8125 104.26 44.6354 103.927 44.5312 103.531C44.1354 102.219 43.7917 101.115 43.5 100.219C43.2292 99.3021 42.9688 98.4688 42.7188 97.7188C42.4896 96.9688 42.2708 96.2396 42.0625 95.5312C41.8542 94.8229 41.6146 94.0104 41.3438 93.0938C41.0938 92.1562 40.8021 91.0625 40.4688 89.8125C40.1562 88.5417 39.7708 86.9896 39.3125 85.1562L38.3438 89.6562L33.8438 108.75C33.7812 109 33.5208 109.125 33.0625 109.125C32.625 109.125 32.0208 109.042 31.25 108.875C30.5 108.708 29.7083 108.5 28.875 108.25C28.0625 108.021 27.2604 107.771 26.4688 107.5C25.6979 107.25 25.0833 107.021 24.625 106.812C24.5208 106.771 24.3854 106.677 24.2188 106.531C24.0729 106.365 24 106.115 24 105.781C24 105.698 24.0312 105.521 24.0938 105.25C24.1562 104.979 24.2292 104.667 24.3125 104.312C24.4167 103.938 24.5208 103.562 24.625 103.188C24.75 102.812 24.8646 102.479 24.9688 102.188C25.2396 101.479 25.4792 100.646 25.6875 99.6875C25.9167 98.7292 26.125 97.7604 26.3125 96.7812C26.5 95.8021 26.6667 94.8646 26.8125 93.9688C26.9792 93.0729 27.1354 92.3229 27.2812 91.7188L31.125 73.7812L32.2812 68.7188C32.4271 68.0729 32.5625 67.4479 32.6875 66.8438C32.8333 66.2188 32.9583 65.6562 33.0625 65.1562C33.1667 64.6562 33.25 64.25 33.3125 63.9375C33.375 63.625 33.4062 63.4479 33.4062 63.4062L41.2188 61C41.5104 61 41.7604 61.0312 41.9688 61.0938C42.1979 61.1354 42.3438 61.3021 42.4062 61.5938L48.625 81.5938L57.1562 63.625L66.9062 61ZM110.781 100.719C110.76 100.802 110.75 100.885 110.75 100.969C110.75 101.031 110.75 101.094 110.75 101.156C110.75 101.677 110.833 102.115 111 102.469C111.167 102.802 111.344 103.083 111.531 103.312C111.74 103.521 111.927 103.698 112.094 103.844C112.26 103.969 112.344 104.083 112.344 104.188C112.344 104.479 112.031 104.75 111.406 105L103 108.594C102.979 108.615 102.906 108.625 102.781 108.625C102.615 108.625 102.448 108.479 102.281 108.188C102.115 107.896 101.948 107.521 101.781 107.062C101.635 106.625 101.49 106.156 101.344 105.656C101.219 105.135 101.104 104.656 101 104.219C99.6875 105.74 98.2708 106.854 96.75 107.562C95.2292 108.271 93.7188 108.625 92.2188 108.625C90.4688 108.625 88.7604 108.24 87.0938 107.469C85.4271 106.698 83.9479 105.604 82.6562 104.188C81.3646 102.75 80.3229 101.021 79.5312 99C78.7604 96.9792 78.375 94.7083 78.375 92.1875C78.375 89.2083 78.8021 86.4896 79.6562 84.0312C80.5312 81.5729 81.7083 79.4583 83.1875 77.6875C84.6667 75.9167 86.3854 74.5521 88.3438 73.5938C90.3229 72.6146 92.4167 72.125 94.625 72.125C96.1875 72.125 97.6667 72.4479 99.0625 73.0938C100.458 73.7188 101.781 74.5312 103.031 75.5312C103.156 74.9062 103.229 74.4062 103.25 74.0312C103.271 73.6562 103.312 73.3646 103.375 73.1562C103.458 72.9479 103.604 72.8125 103.812 72.75C104.021 72.6667 104.365 72.6042 104.844 72.5625C106.344 72.3542 107.833 72.1667 109.312 72C110.812 71.8125 112.375 71.6771 114 71.5938L110.781 100.719ZM101.438 88.9375C101.646 87.75 101.781 86.6354 101.844 85.5938C101.927 84.5312 101.99 83.5625 102.031 82.6875C101.698 82.4375 101.333 82.1771 100.938 81.9062C100.562 81.6354 100.146 81.3854 99.6875 81.1562C99.25 80.9062 98.7812 80.7083 98.2812 80.5625C97.8021 80.4167 97.2917 80.3438 96.75 80.3438C95.625 80.3438 94.6771 80.7083 93.9062 81.4375C93.1562 82.1667 92.5417 83.0625 92.0625 84.125C91.6042 85.1875 91.2708 86.3125 91.0625 87.5C90.875 88.6875 90.7812 89.7396 90.7812 90.6562C90.7812 93.9479 91.2083 96.3646 92.0625 97.9062C92.9375 99.4271 94.1458 100.188 95.6875 100.188C96.3125 100.188 97.0104 100.01 97.7812 99.6562C98.5521 99.3021 99.3333 98.8125 100.125 98.1875L101.438 88.9375ZM134.719 82.9062C134.427 85.0938 134.146 87.2812 133.875 89.4688C133.625 91.6354 133.469 93.6667 133.406 95.5625C133.406 96.375 133.469 97.0521 133.594 97.5938C133.719 98.1354 133.896 98.5625 134.125 98.875C134.375 99.1875 134.667 99.4167 135 99.5625C135.333 99.6875 135.708 99.75 136.125 99.75C136.792 99.75 137.521 99.6562 138.312 99.4688C139.104 99.2604 139.896 99 140.688 98.6875C140.938 98.5833 141.146 98.5104 141.312 98.4688C141.5 98.4062 141.656 98.375 141.781 98.375C141.99 98.375 142.125 98.4688 142.188 98.6562C142.271 98.8438 142.344 99.1771 142.406 99.6562C142.49 100.115 142.604 100.74 142.75 101.531C142.896 102.323 143.135 103.323 143.469 104.531C143.49 104.635 143.5 104.729 143.5 104.812C143.521 104.875 143.531 104.938 143.531 105C143.531 105.292 143.417 105.5 143.188 105.625C142.979 105.75 142.625 105.896 142.125 106.062C141.271 106.354 140.365 106.656 139.406 106.969C138.469 107.26 137.531 107.531 136.594 107.781C135.677 108.031 134.792 108.229 133.938 108.375C133.083 108.542 132.333 108.625 131.688 108.625C128.208 108.625 125.667 107.76 124.062 106.031C122.479 104.302 121.688 101.667 121.688 98.125C121.688 97.5208 121.708 96.9062 121.75 96.2812C121.792 95.6354 121.844 94.9688 121.906 94.2812C122.115 92.1979 122.292 90.2292 122.438 88.375C122.604 86.5 122.771 84.7083 122.938 83H119.656C118.531 83 117.719 82.9583 117.219 82.875C116.719 82.7708 116.469 82.5729 116.469 82.2812C116.469 82.1979 116.573 81.9792 116.781 81.625C116.99 81.25 117.25 80.8125 117.562 80.3125C117.896 79.7917 118.25 79.2396 118.625 78.6562C119 78.0729 119.354 77.5312 119.688 77.0312C120.042 76.5104 120.344 76.0625 120.594 75.6875C120.844 75.3125 121 75.0833 121.062 75H123.281C123.469 73.4167 123.615 72.0938 123.719 71.0312C123.844 69.9479 123.938 69.0521 124 68.3438C124.083 67.6354 124.156 67.0938 124.219 66.7188C124.281 66.3229 124.344 66.0312 124.406 65.8438C124.49 65.6562 124.583 65.5417 124.688 65.5C124.812 65.4375 124.969 65.3854 125.156 65.3438C126.094 65.1562 127 64.9896 127.875 64.8438C128.75 64.6771 129.625 64.5104 130.5 64.3438C131.375 64.1771 132.26 63.9896 133.156 63.7812C134.073 63.5521 135.021 63.2917 136 63C136.062 63 136.104 63 136.125 63C136.146 62.9792 136.188 62.9688 136.25 62.9688C136.5 62.9688 136.625 63.0521 136.625 63.2188V63.2812C136.521 64.4271 136.354 66.0208 136.125 68.0625C135.917 70.1042 135.677 72.4167 135.406 75H143.781C143.948 75 144.104 75.0625 144.25 75.1875C144.417 75.2917 144.5 75.4792 144.5 75.75C144.5 75.8542 144.375 76.2292 144.125 76.875C143.875 77.5208 143.521 78.3646 143.062 79.4062L141.938 81.9375C141.792 82.25 141.635 82.4792 141.469 82.625C141.323 82.7708 141.01 82.8646 140.531 82.9062H134.719ZM150.625 61.5625C150.625 61.4375 150.615 61.3229 150.594 61.2188C150.594 61.1146 150.594 61.0104 150.594 60.9062C150.594 60.7188 150.667 60.5625 150.812 60.4375C150.958 60.2917 151.312 60.1458 151.875 60L160.656 57.9062C160.885 57.8646 161.188 57.7708 161.562 57.625C161.938 57.4792 162.302 57.4062 162.656 57.4062C163.385 57.4062 163.75 57.7396 163.75 58.4062C163.75 58.4479 163.719 58.875 163.656 59.6875C163.594 60.5 163.51 61.5104 163.406 62.7188C163.302 63.9271 163.188 65.25 163.062 66.6875C162.938 68.1042 162.812 69.4583 162.688 70.75C162.562 72.0417 162.448 73.1771 162.344 74.1562C162.24 75.1146 162.156 75.7396 162.094 76.0312C163.073 75.4896 164.094 74.9792 165.156 74.5C166.219 74.0208 167.281 73.6042 168.344 73.25C169.427 72.8958 170.5 72.625 171.562 72.4375C172.646 72.2292 173.688 72.125 174.688 72.125C175.958 72.125 177.146 72.3125 178.25 72.6875C179.354 73.0417 180.312 73.6458 181.125 74.5C181.958 75.3333 182.604 76.4375 183.062 77.8125C183.542 79.1667 183.781 80.8333 183.781 82.8125C183.781 83.3125 183.771 83.8333 183.75 84.375C183.729 84.8958 183.688 85.4375 183.625 86L182.281 98.7812C182.177 99.6562 182.115 100.573 182.094 101.531C182.073 102.469 182.062 103.438 182.062 104.438C182.062 104.604 182.062 104.75 182.062 104.875C182.083 104.979 182.094 105.073 182.094 105.156C182.094 105.344 182.01 105.49 181.844 105.594C181.698 105.698 181.354 105.833 180.812 106L173.156 108.125C172.927 108.188 172.625 108.281 172.25 108.406C171.875 108.552 171.51 108.625 171.156 108.625C170.802 108.625 170.531 108.542 170.344 108.375C170.156 108.229 170.062 107.927 170.062 107.469C170.208 105.906 170.323 104.646 170.406 103.688C170.51 102.729 170.583 101.969 170.625 101.406C170.688 100.823 170.74 100.385 170.781 100.094C170.823 99.7812 170.854 99.5104 170.875 99.2812C170.896 99.0312 170.927 98.7604 170.969 98.4688C171.01 98.1562 171.052 97.7083 171.094 97.125C171.156 96.5417 171.229 95.7708 171.312 94.8125C171.417 93.8542 171.542 92.5938 171.688 91.0312C171.771 90.1979 171.854 89.375 171.938 88.5625C172.042 87.7292 172.094 86.9688 172.094 86.2812C172.094 85.4062 172.042 84.6146 171.938 83.9062C171.854 83.1771 171.688 82.5625 171.438 82.0625C171.208 81.5417 170.885 81.1354 170.469 80.8438C170.052 80.5521 169.521 80.4062 168.875 80.4062C168.396 80.4062 167.74 80.5104 166.906 80.7188C166.094 80.9271 165.271 81.2708 164.438 81.75C163.625 82.2292 162.896 82.8646 162.25 83.6562C161.625 84.4271 161.271 85.3854 161.188 86.5312C161.021 88.1354 160.885 89.4479 160.781 90.4688C160.698 91.4896 160.625 92.3333 160.562 93C160.5 93.6667 160.448 94.1979 160.406 94.5938C160.385 94.9896 160.365 95.3542 160.344 95.6875C160.323 95.7917 160.292 96.0521 160.25 96.4688C160.208 96.8646 160.156 97.3438 160.094 97.9062C160.031 98.4688 159.969 99.0729 159.906 99.7188C159.844 100.344 159.781 100.938 159.719 101.5C159.677 102.062 159.635 102.552 159.594 102.969C159.573 103.365 159.562 103.615 159.562 103.719C159.562 103.885 159.562 104.031 159.562 104.156C159.583 104.26 159.594 104.365 159.594 104.469C159.594 104.635 159.51 104.781 159.344 104.906C159.198 105.01 158.854 105.135 158.312 105.281L150.156 108.125C149.927 108.208 149.625 108.312 149.25 108.438C148.875 108.562 148.51 108.625 148.156 108.625C147.844 108.625 147.583 108.531 147.375 108.344C147.167 108.177 147.062 107.885 147.062 107.469L150.625 61.5625ZM190.719 80.5625C190.969 77.7083 191.167 74.8854 191.312 72.0938C191.479 69.3021 191.656 66.4375 191.844 63.5C191.885 62.8125 191.948 62.3438 192.031 62.0938C192.135 61.8229 192.375 61.6458 192.75 61.5625C194.688 61.2083 196.625 60.8542 198.562 60.5C200.521 60.125 202.479 59.6354 204.438 59.0312C204.5 59.0104 204.594 59 204.719 59C204.948 59 205.062 59.1042 205.062 59.3125L201 103.938V104.469C201 104.656 200.927 104.812 200.781 104.938C200.635 105.042 200.292 105.167 199.75 105.312L191.562 108.312C191.333 108.417 191.031 108.521 190.656 108.625C190.281 108.75 189.917 108.812 189.562 108.812C189.271 108.812 189.01 108.74 188.781 108.594C188.573 108.448 188.469 108.198 188.469 107.844V107.656C188.635 105.552 188.792 103.5 188.938 101.5C189.104 99.4792 189.271 97.3958 189.438 95.25C189.625 93.1042 189.823 90.8333 190.031 88.4375C190.24 86.0417 190.469 83.4167 190.719 80.5625ZM226.625 72.125C228.604 72.125 230.396 72.5 232 73.25C233.625 73.9792 235.01 74.9375 236.156 76.125C237.323 77.2917 238.219 78.6042 238.844 80.0625C239.469 81.5208 239.781 82.9792 239.781 84.4375C239.781 85.7292 239.385 87.0312 238.594 88.3438C237.802 89.6354 236.688 90.8021 235.25 91.8438C233.833 92.8854 232.125 93.7292 230.125 94.375C228.125 95.0208 225.927 95.3438 223.531 95.3438C222.281 95.3438 220.969 95.2188 219.594 94.9688C219.677 95.8646 219.938 96.6354 220.375 97.2812C220.812 97.9271 221.365 98.4583 222.031 98.875C222.698 99.2917 223.448 99.6042 224.281 99.8125C225.135 100 226.01 100.094 226.906 100.094C227.906 100.094 228.865 100.01 229.781 99.8438C230.719 99.6562 231.615 99.4167 232.469 99.125C233.323 98.8333 234.146 98.5104 234.938 98.1562C235.729 97.8021 236.479 97.4479 237.188 97.0938C237.375 97.0521 237.531 97.0208 237.656 97C237.802 96.9583 237.938 96.9375 238.062 96.9375C238.062 96.9375 238.052 97.1042 238.031 97.4375C238.031 97.7708 238.031 98.2396 238.031 98.8438C238.031 99.4479 238.021 100.177 238 101.031C238 101.885 237.99 102.833 237.969 103.875C238.031 103.979 238.073 104.083 238.094 104.188C238.115 104.292 238.125 104.375 238.125 104.438C238.125 104.688 237.896 104.958 237.438 105.25C236.979 105.542 236.375 105.844 235.625 106.156C234.896 106.469 234.052 106.771 233.094 107.062C232.156 107.354 231.198 107.615 230.219 107.844C229.24 108.094 228.292 108.281 227.375 108.406C226.458 108.552 225.656 108.625 224.969 108.625C222.719 108.625 220.531 108.229 218.406 107.438C216.302 106.667 214.427 105.552 212.781 104.094C211.156 102.635 209.854 100.865 208.875 98.7812C207.896 96.6979 207.406 94.3542 207.406 91.75C207.406 89.0208 207.875 86.4688 208.812 84.0938C209.75 81.6979 211.062 79.6146 212.75 77.8438C214.458 76.0729 216.49 74.6771 218.844 73.6562C221.198 72.6354 223.792 72.125 226.625 72.125ZM226.25 80.4375C225.396 80.4375 224.604 80.625 223.875 81C223.167 81.3542 222.51 81.875 221.906 82.5625C221.323 83.2292 220.812 84.0417 220.375 85C219.938 85.9375 219.583 86.9792 219.312 88.125C221.458 87.75 223.24 87.3542 224.656 86.9375C226.073 86.5208 227.208 86.1042 228.062 85.6875C228.917 85.25 229.521 84.8229 229.875 84.4062C230.229 83.9688 230.406 83.5521 230.406 83.1562C230.406 82.7812 230.26 82.4271 229.969 82.0938C229.698 81.7604 229.354 81.4688 228.938 81.2188C228.521 80.9688 228.062 80.7812 227.562 80.6562C227.083 80.5104 226.646 80.4375 226.25 80.4375ZM269.25 81.5625C268.812 81.5208 268.323 81.4792 267.781 81.4375C267.24 81.375 266.667 81.3438 266.062 81.3438C265.146 81.3438 264.208 81.4271 263.25 81.5938C262.312 81.7396 261.438 82.0417 260.625 82.5C259.812 82.9583 259.115 83.5938 258.531 84.4062C257.948 85.1979 257.573 86.2292 257.406 87.5C257.26 89.0417 257.135 90.3125 257.031 91.3125C256.948 92.2917 256.885 93.1042 256.844 93.75C256.802 94.375 256.76 94.8854 256.719 95.2812C256.698 95.6562 256.677 96.0104 256.656 96.3438C256.656 96.4271 256.635 96.6562 256.594 97.0312C256.573 97.4062 256.531 97.8438 256.469 98.3438C256.406 98.8438 256.344 99.3854 256.281 99.9688C256.24 100.552 256.188 101.094 256.125 101.594C256.062 102.094 256.01 102.531 255.969 102.906C255.948 103.281 255.938 103.51 255.938 103.594C255.938 103.76 255.938 103.906 255.938 104.031C255.958 104.135 255.969 104.24 255.969 104.344C255.969 104.51 255.885 104.656 255.719 104.781C255.573 104.885 255.229 105.01 254.688 105.156L246.406 108.125C246.177 108.208 245.875 108.312 245.5 108.438C245.125 108.562 244.76 108.625 244.406 108.625C244.115 108.625 243.854 108.552 243.625 108.406C243.417 108.26 243.312 108.01 243.312 107.656L246 76.6875C246.062 76 246.135 75.5312 246.219 75.2812C246.323 75.0104 246.562 74.8333 246.938 74.75C248.833 74.375 250.792 74 252.812 73.625C254.833 73.2292 256.792 72.7292 258.688 72.125C258.854 72.125 258.948 72.1562 258.969 72.2188C259.01 72.2604 259.031 72.3333 259.031 72.4375C259.031 72.4792 259.021 72.5417 259 72.625C259 72.7083 258.969 72.8958 258.906 73.1875C258.865 73.4792 258.792 73.9271 258.688 74.5312C258.604 75.1146 258.479 75.9375 258.312 77C259.271 76.25 260.323 75.5625 261.469 74.9375C262.635 74.3125 263.802 73.7812 264.969 73.3438C266.135 72.8854 267.26 72.5312 268.344 72.2812C269.427 72.0104 270.375 71.875 271.188 71.875L269.25 81.5625Z" fill="#ECF0F1"/>
<path d="M13.1944 26.9252C13.0198 27.8441 12.8511 28.8389 12.6884 29.9096C12.5364 30.9677 12.4011 32.0128 12.2823 33.0448C12.1636 34.0768 12.0784 35.0121 12.0268 35.8508L8.92499 36.0945L8.63183 35.7296C8.77511 34.8603 8.9722 33.9279 9.22312 32.9325C9.48573 31.9362 9.77169 30.9381 10.081 29.9382C10.4011 28.9256 10.7263 27.9773 11.0565 27.0932L13.1944 26.9252ZM6.74554 27.432C6.57089 28.3508 6.40221 29.3456 6.23949 30.4163C6.08754 31.4745 5.9522 32.5195 5.83346 33.5515C5.71473 34.5835 5.62953 35.5189 5.57789 36.3575L2.49364 36.5999L2.25306 36.2309C2.39633 35.3615 2.58759 34.4296 2.82682 33.4352C3.07774 32.4398 3.35787 31.4421 3.66721 30.4422C3.97562 29.4305 4.29493 28.4827 4.62512 27.5986L6.74554 27.432ZM141.751 16.8232C141.577 17.7421 141.408 18.7369 141.245 19.8076C141.093 20.8657 140.958 21.9108 140.839 22.9428C140.72 23.9748 140.635 24.9101 140.584 25.7488L137.482 25.9925L137.189 25.6276C137.332 24.7583 137.529 23.8259 137.78 22.8305C138.043 21.8342 138.329 20.8361 138.638 19.8362C138.958 18.8236 139.283 17.8753 139.613 16.9912L141.751 16.8232ZM135.302 17.33C135.128 18.2488 134.959 19.2436 134.796 20.3143C134.644 21.3725 134.509 22.4175 134.39 23.4495C134.272 24.4815 134.186 25.4169 134.135 26.2555L131.05 26.4979L130.81 26.1289C130.953 25.2595 131.144 24.3276 131.384 23.3332C131.635 22.3378 131.915 21.3401 132.224 20.3401C132.532 19.3285 132.852 18.3807 133.182 17.4966L135.302 17.33Z" fill="#F1C40F"/>
<path d="M25.6129 45.1686C25.612 45.1569 25.6052 45.1457 25.5926 45.1349C25.5917 45.1233 25.5908 45.1116 25.5899 45.0999C25.5743 44.9013 25.6716 44.7937 25.8819 44.7772C25.987 44.7689 26.108 44.8123 26.2448 44.9074C26.9225 45.4536 27.6606 45.8717 28.4592 46.1616C29.2578 46.4515 30.1127 46.5606 31.024 46.489C31.2693 46.4697 31.5479 46.4243 31.8596 46.3528C32.1705 46.2696 32.4615 46.1586 32.7327 46.0197C33.003 45.8692 33.2238 45.6873 33.3951 45.474C33.5781 45.2597 33.6577 45.0008 33.6338 44.697C33.6072 44.3582 33.5015 44.0609 33.3169 43.805C33.1322 43.5492 32.8982 43.3384 32.6148 43.1726C32.5041 43.1107 32.3372 43.0063 32.1141 42.8592C31.8909 42.7122 31.6368 42.5441 31.3515 42.3549C31.0663 42.1658 30.7685 41.9658 30.458 41.7551C30.1467 41.5327 29.8484 41.327 29.5632 41.1378C29.2887 40.936 29.0395 40.7558 28.8154 40.597C28.5913 40.4383 28.4231 40.3164 28.3106 40.2312C27.5809 39.7713 26.991 39.2946 26.5408 38.801C26.1022 38.3065 25.7553 37.7812 25.5001 37.2253C25.2448 36.6694 25.0641 36.09 24.9579 35.487C24.8509 34.8724 24.7702 34.2205 24.7161 33.5312C24.6353 32.5031 24.804 31.5084 25.2221 30.5469C25.6403 29.5854 26.2667 28.7309 27.1013 27.9836C27.9467 27.2236 28.9788 26.5959 30.1977 26.1005C31.4156 25.5933 32.7898 25.2796 34.3202 25.1594C34.5071 25.1447 34.7894 25.146 35.1669 25.1634C35.5435 25.169 35.9574 25.2012 36.4087 25.2597C36.8717 25.3174 37.3433 25.4096 37.8234 25.5365C38.3036 25.6633 38.7465 25.8401 39.1522 26.0668C39.2881 26.1502 39.3948 26.2359 39.4722 26.3238C39.5613 26.4108 39.6254 26.5527 39.6643 26.7495C39.7971 27.6912 39.9173 28.6222 40.0249 29.5424C40.1315 30.4509 40.2544 31.4168 40.3936 32.4403C40.4092 32.6389 40.3789 32.7765 40.3026 32.853C40.2255 32.9179 40.1226 32.9553 39.9941 32.9654C39.8656 32.9755 39.7635 32.9483 39.6879 32.8837C39.3225 32.5715 38.9459 32.2661 38.558 31.9675C38.1701 31.6688 37.7679 31.4124 37.3514 31.1983C36.934 30.9725 36.4915 30.8015 36.024 30.6855C35.5681 30.5685 35.0773 30.5306 34.5516 30.5719C34.2361 30.5967 33.923 30.6507 33.6122 30.7339C33.3004 30.8054 33.0215 30.9214 32.7755 31.0818C32.5295 31.2422 32.3344 31.4515 32.1901 31.7097C32.0575 31.9669 32.0059 32.2825 32.0353 32.6563C32.0665 33.0535 32.1403 33.3945 32.2567 33.6792C32.3848 33.963 32.6575 34.2179 33.075 34.4437L37.5052 36.9696C38.3194 37.4581 38.9876 37.9581 39.5097 38.4695C40.0309 38.9693 40.447 39.4773 40.758 39.9936C41.0689 40.5099 41.2917 41.0272 41.4265 41.5456C41.5721 42.0514 41.6646 42.5555 41.704 43.0578C41.7683 43.8756 41.6945 44.6572 41.4827 45.4027C41.271 46.1481 40.9557 46.8488 40.5371 47.5047C40.1175 48.1489 39.6116 48.7412 39.0193 49.2814C38.4377 49.8091 37.8044 50.2761 37.1193 50.6826C36.4333 51.0774 35.7116 51.3927 34.9543 51.6285C34.2096 51.8751 33.4693 52.0274 32.7333 52.0852C32.1608 52.1302 31.5933 52.163 31.0307 52.1837C30.4807 52.2152 29.9396 52.2107 29.4074 52.1702C28.8762 52.1414 28.3588 52.0645 27.8553 51.9395C27.3527 51.8262 26.8684 51.6468 26.4024 51.4013L25.6129 45.1686ZM62.9127 46.6104C62.908 46.9987 62.8824 47.2711 62.8359 47.4275C62.7885 47.5723 62.6673 47.6759 62.4724 47.7382C61.5014 48.0966 60.4841 48.4646 59.4206 48.842C58.3678 49.2068 57.3516 49.6629 56.3719 50.21C56.3378 50.2245 56.2857 50.2344 56.2156 50.2399C56.1221 50.2473 56.0619 50.2285 56.0348 50.1836C56.0195 50.1378 56.0095 50.0857 56.0049 50.0273C56.0031 50.0039 55.9998 49.963 55.9953 49.9046C56.0024 49.8453 56.0112 49.7329 56.0217 49.5675C56.0331 49.4138 56.0453 49.1954 56.0583 48.9122C56.083 48.6282 56.1121 48.2498 56.1454 47.7769C54.904 48.7326 53.7902 49.4431 52.8041 49.9085C51.8306 50.3847 50.9525 50.6535 50.1697 50.715C48.2187 50.8683 46.7567 50.513 45.7837 49.6491C44.8215 48.7726 44.2669 47.3997 44.12 45.5304C44.0934 45.1916 44.0721 44.8465 44.0563 44.4951C44.0395 44.1321 44.0456 43.7613 44.0747 43.3829C44.0949 41.9942 44.1131 40.8055 44.1295 39.8168C44.1449 38.8165 44.1547 37.9693 44.159 37.2755C44.1632 36.5816 44.1659 36.0171 44.167 35.5821C44.1788 35.1345 44.185 34.7638 44.1854 34.4699C44.1975 34.175 44.202 33.9337 44.199 33.7459C44.2068 33.5454 44.215 33.3508 44.2237 33.1621C44.241 32.7845 44.2613 32.5185 44.2844 32.3638C44.3192 32.2083 44.4457 32.0984 44.664 32.0342C45.2048 31.886 45.7174 31.7516 46.2016 31.6313C46.6966 31.4984 47.18 31.3663 47.6516 31.2352C48.134 31.0915 48.6218 30.9415 49.115 30.7852C49.6082 30.6289 50.1287 30.447 50.6766 30.2393C50.7 30.2375 50.7234 30.2357 50.7467 30.2338C50.7692 30.2203 50.7921 30.2126 50.8155 30.2108C50.9557 30.1998 51.0294 30.241 51.0368 30.3345L51.0395 30.3695C51.024 30.7704 51.0125 31.1475 51.005 31.5007C50.9975 31.8539 50.9909 32.2189 50.9852 32.5955C50.9786 32.9604 50.9685 33.355 50.9548 33.7792C50.9528 34.2025 50.9446 34.6969 50.9303 35.2623C50.915 35.8159 50.895 36.4582 50.8701 37.1889C50.8452 37.9197 50.812 38.7686 50.7705 39.7358C50.7555 40.4423 50.7405 41.1487 50.7254 41.8552C50.7095 42.55 50.7249 43.1953 50.7718 43.7911C50.7975 44.1182 50.8447 44.4202 50.9135 44.6969C50.9813 44.9619 51.0815 45.1891 51.2139 45.3786C51.3571 45.5554 51.5321 45.6886 51.739 45.7781C51.9459 45.8676 52.207 45.9 52.5224 45.8752C52.7678 45.8559 53.0966 45.7772 53.5089 45.639C53.9203 45.4891 54.3258 45.2633 54.7252 44.9616C55.1238 44.6481 55.4633 44.2571 55.7439 43.7883C56.0352 43.307 56.1771 42.7199 56.1697 42.0269C56.1606 40.8639 56.1549 39.8945 56.1528 39.1189C56.1613 38.3306 56.1683 37.6718 56.1738 37.1424C56.1783 36.6013 56.1838 36.1483 56.1904 35.7834C56.197 35.4185 56.1991 35.0716 56.1968 34.7426C56.2052 34.4011 56.2064 34.0425 56.2004 33.6668C56.1935 33.2794 56.1792 32.7986 56.1576 32.2243C56.1623 31.836 56.1826 31.5699 56.2183 31.4261C56.2648 31.2696 56.3913 31.1597 56.5979 31.0965C57.6445 30.8026 58.7145 30.507 59.8078 30.2095C60.9003 29.9003 61.9647 29.5345 63.0012 29.1122C63.0947 29.1048 63.1486 29.1182 63.1631 29.1524C63.1883 29.1739 63.2032 29.2139 63.2078 29.2723L62.9127 46.6104ZM73.8635 35.6289C73.8815 36.756 73.8889 37.6723 73.8855 38.3778C73.8939 39.0825 73.898 39.6582 73.8978 40.1048C73.8967 40.5399 73.8946 40.8868 73.8914 41.1457C73.8873 41.3928 73.8882 41.6279 73.8939 41.8508C74.2177 42.5306 74.6599 43.0718 75.2205 43.4745C75.7802 43.8654 76.4281 44.032 77.1641 43.9741C77.8066 43.9237 78.3518 43.681 78.7996 43.2461C79.2581 42.7987 79.6199 42.2413 79.8848 41.5739C80.1614 40.9057 80.3503 40.1679 80.4514 39.3606C80.5526 38.5534 80.5724 37.7584 80.5109 36.9756C80.4604 36.3331 80.3552 35.7418 80.1952 35.2019C80.0469 34.6611 79.8462 34.2008 79.593 33.821C79.3389 33.4296 79.0337 33.1362 78.6775 32.9408C78.332 32.7329 77.9314 32.6468 77.4758 32.6826C77.1019 32.712 76.7341 32.8173 76.3722 32.9985C76.021 33.1672 75.6852 33.3817 75.3648 33.6419C75.0434 33.8905 74.754 34.1719 74.4966 34.486C74.2499 34.7875 74.0495 35.0795 73.8954 35.3619L73.8635 35.6289ZM73.8105 30.4668C74.7395 29.7238 75.7258 29.1115 76.7694 28.6298C77.813 28.1481 78.9189 27.8614 80.0872 27.7696C81.1854 27.6833 82.1496 27.8367 82.9798 28.2299C83.8208 28.6105 84.5345 29.1657 85.1208 29.8955C85.7062 30.6135 86.1606 31.4594 86.4839 32.4332C86.819 33.406 87.0292 34.4357 87.1146 35.5222C87.1889 36.4685 87.1708 37.4338 87.06 38.4182C86.9493 39.4025 86.7487 40.3646 86.4581 41.3043C86.1666 42.2323 85.7834 43.1146 85.3084 43.9513C84.8334 44.788 84.2689 45.5317 83.6147 46.1826C82.9714 46.8209 82.2366 47.343 81.4103 47.7488C80.5841 48.1546 79.6745 48.3965 78.6815 48.4746C77.8053 48.5434 76.9503 48.4343 76.1167 48.1471C75.2947 47.8591 74.5112 47.4622 73.7662 46.9565C73.7708 47.0149 73.7702 47.2325 73.7646 47.6091C73.7697 47.9731 73.7695 48.4198 73.7641 48.9491C73.7587 49.4785 73.7502 50.0434 73.7386 50.6439C73.7279 51.2559 73.7198 51.8267 73.7144 52.3561C73.709 52.8855 73.703 53.3326 73.6964 53.6976C73.7024 54.0732 73.7077 54.2903 73.7123 54.3487C73.7196 54.4422 73.7256 54.5181 73.7302 54.5765C73.7474 54.6457 73.7583 54.7095 73.7629 54.7679C73.7702 54.8614 73.7295 54.941 73.6406 55.0067C73.5643 55.0833 73.3775 55.1743 73.0802 55.28L68.5636 56.8163C68.4379 56.8614 68.2726 56.9273 68.0678 57.0139C67.8639 57.1122 67.6627 57.1692 67.4641 57.1848C67.3005 57.1976 67.1513 57.1682 67.0164 57.0965C66.8931 57.0239 66.8228 56.8767 66.8053 56.6547L66.9273 30.8314C66.932 30.4431 66.9522 30.177 66.988 30.0332C67.0344 29.8767 67.161 29.7668 67.3676 29.7036C68.4142 29.4098 69.49 29.1136 70.595 28.8152C71.6991 28.5051 72.7694 28.1389 73.806 27.7166C73.8994 27.7092 73.9534 27.7226 73.9678 27.7567C73.993 27.7783 74.0079 27.8182 74.0125 27.8766C74.0143 27.9 74.0112 27.9355 74.0032 27.9832C74.0069 28.0299 73.9976 28.1364 73.9754 28.3027C73.9649 28.4681 73.9438 28.7225 73.912 29.0659C73.891 29.3967 73.8571 29.8637 73.8105 30.4668ZM99.1359 26.2727C100.246 26.1855 101.267 26.3168 102.2 26.6667C103.143 27.004 103.962 27.4804 104.657 28.0958C105.363 28.6986 105.923 29.3952 106.338 30.1854C106.752 30.9757 106.992 31.7797 107.056 32.5975C107.113 33.3218 106.948 34.0694 106.562 34.8403C106.175 35.5995 105.602 36.3029 104.841 36.9504C104.093 37.5969 103.172 38.1454 102.079 38.5957C100.986 39.046 99.7677 39.3239 98.4242 39.4295C97.7232 39.4845 96.9817 39.4723 96.1996 39.3927C96.2858 39.8914 96.4658 40.3121 96.7396 40.655C97.0134 40.9979 97.3464 41.2715 97.7386 41.4758C98.1308 41.6801 98.5652 41.8223 99.0417 41.9024C99.5289 41.9699 100.024 41.9839 100.526 41.9444C101.087 41.9003 101.621 41.8114 102.127 41.6775C102.645 41.5311 103.137 41.3572 103.603 41.156C104.069 40.9548 104.516 40.7375 104.944 40.504C105.373 40.2705 105.778 40.0389 106.159 39.809C106.263 39.7774 106.349 39.753 106.418 39.7358C106.498 39.706 106.573 39.6884 106.643 39.6829C106.643 39.6829 106.645 39.7768 106.648 39.9646C106.662 40.1515 106.683 40.4144 106.71 40.7532C106.736 41.092 106.763 41.5014 106.788 41.9813C106.826 42.4603 106.862 42.9923 106.896 43.5773C106.936 43.633 106.964 43.6896 106.98 43.7471C106.996 43.8046 107.006 43.8508 107.009 43.8859C107.02 44.0261 106.903 44.1881 106.659 44.3718C106.415 44.5556 106.089 44.7516 105.682 44.9599C105.287 45.1673 104.828 45.3738 104.303 45.5796C103.79 45.7845 103.264 45.9728 102.725 46.1444C102.187 46.3278 101.664 46.4747 101.155 46.5852C100.648 46.7073 100.201 46.7836 99.8155 46.8139C98.5538 46.913 97.3097 46.7874 96.0831 46.4371C94.8692 46.0976 93.7687 45.5552 92.7815 44.8099C91.8059 44.0637 90.9977 43.1281 90.3569 42.0029C89.716 40.8778 89.3381 39.5851 89.2234 38.1247C89.1031 36.5943 89.2535 35.1425 89.6746 33.7694C90.0947 32.3845 90.739 31.1584 91.6072 30.091C92.4872 29.0227 93.5647 28.1505 94.8399 27.4743C96.1151 26.7981 97.5471 26.3976 99.1359 26.2727ZM99.2919 30.9507C98.8129 30.9883 98.3773 31.1283 97.9849 31.3707C97.6033 31.6006 97.2582 31.9216 96.9497 32.3337C96.652 32.7333 96.4016 33.2114 96.1984 33.7681C95.9944 34.3131 95.8417 34.9128 95.7403 35.5673C96.9271 35.2624 97.9086 34.962 98.6846 34.6659C99.4607 34.3698 100.079 34.0861 100.54 33.8148C100.999 33.5319 101.319 33.2657 101.5 33.0165C101.679 32.7555 101.76 32.5141 101.742 32.2921C101.726 32.0818 101.629 31.8896 101.45 31.7156C101.284 31.5406 101.078 31.3922 100.833 31.2703C100.589 31.1485 100.323 31.0636 100.038 31.0155C99.7624 30.9548 99.5139 30.9332 99.2919 30.9507ZM123.455 29.6867C123.207 29.6826 122.931 29.6808 122.626 29.6813C122.319 29.6702 121.996 29.6779 121.658 29.7045C121.144 29.7449 120.621 29.8329 120.091 29.9686C119.572 30.0917 119.095 30.2997 118.659 30.5925C118.224 30.8853 117.861 31.2724 117.569 31.7537C117.277 32.2234 117.112 32.8182 117.075 33.5382C117.061 34.4091 117.047 35.1273 117.032 35.6927C117.029 36.2454 117.03 36.7038 117.035 37.0678C117.039 37.4201 117.038 37.7082 117.032 37.932C117.037 38.1432 117.041 38.3427 117.044 38.5306C117.047 38.5773 117.046 38.7067 117.039 38.9188C117.044 39.1301 117.04 39.3772 117.027 39.6604C117.014 39.9435 117.003 40.25 116.993 40.5799C116.996 40.9088 116.99 41.2149 116.977 41.498C116.964 41.7812 116.954 42.0288 116.947 42.2409C116.952 42.4521 116.957 42.5811 116.96 42.6278C116.968 42.7213 116.974 42.8031 116.979 42.8732C116.996 42.9307 117.006 42.9886 117.011 43.047C117.018 43.1405 116.978 43.2259 116.89 43.3034C116.813 43.3682 116.625 43.4535 116.328 43.5591L111.815 45.5888C111.69 45.6456 111.525 45.7174 111.321 45.804C111.116 45.8906 110.914 45.9417 110.716 45.9573C110.552 45.9702 110.403 45.9408 110.268 45.8691C110.145 45.7965 110.075 45.6609 110.059 45.4623L110.202 27.9775C110.207 27.5892 110.227 27.3231 110.263 27.1792C110.309 27.0228 110.436 26.9129 110.642 26.8497C111.689 26.5558 112.771 26.2593 113.887 25.9599C115.003 25.6489 116.079 25.2822 117.116 24.8599C117.209 24.8525 117.263 24.8659 117.278 24.9001C117.303 24.9216 117.318 24.9616 117.322 25.02C117.324 25.0433 117.321 25.0788 117.313 25.1265C117.317 25.1732 117.307 25.2797 117.285 25.4461C117.275 25.6114 117.253 25.8658 117.222 26.2092C117.201 26.54 117.167 27.007 117.12 27.6102C117.625 27.1474 118.184 26.7155 118.799 26.3145C119.426 25.9126 120.057 25.5633 120.692 25.2665C121.326 24.9581 121.941 24.7099 122.537 24.522C123.133 24.3224 123.659 24.2047 124.114 24.1689L123.455 29.6867Z" fill="#ECF0F1"/>
</svg>
